<mxfile host="app.diagrams.net" modified="2024-07-09T16:29:06.110Z" agent="Mozilla/5.0 (Windows NT 10.0; Win64; x64) AppleWebKit/537.36 (KHTML, like Gecko) Chrome/126.0.0.0 Safari/537.36" etag="wngO0tu6r0_eENmEkw4D" version="24.6.4" type="github">
  <diagram name="Page-1" id="eovN-4z9HB7-FLf9IqhV">
    <mxGraphModel dx="794" dy="428" grid="1" gridSize="10" guides="1" tooltips="1" connect="1" arrows="1" fold="1" page="1" pageScale="1" pageWidth="850" pageHeight="1100" math="0" shadow="0">
      <root>
        <mxCell id="0" />
        <mxCell id="1" parent="0" />
        <mxCell id="LxRtRh2ZlBeRw3DF-ybX-2" value="" style="html=1;outlineConnect=0;whiteSpace=wrap;shape=mxgraph.archimate3.locationIcon;fillColor=#2f94f9;aspect=fixed;strokeColor=#001DBC;fontColor=#ffffff;" parent="1" vertex="1">
          <mxGeometry x="303" y="60" width="224" height="320" as="geometry" />
        </mxCell>
        <mxCell id="fmWiyUDYH5ZEofo7Le9D-2" value="" style="shape=waypoint;sketch=0;size=6;pointerEvents=1;points=[];fillColor=#fa6800;resizable=0;rotatable=0;perimeter=centerPerimeter;snapToPoint=1;strokeWidth=7;strokeColor=#C73500;fontColor=#000000;" parent="1" vertex="1">
          <mxGeometry x="405" y="380" width="20" height="20" as="geometry" />
        </mxCell>
        <mxCell id="HW6ld8klnoUhau4rZCll-2" value="" style="rounded=0;whiteSpace=wrap;html=1;fillColor=#000000;" vertex="1" parent="1">
          <mxGeometry x="315" y="140" width="110" height="40" as="geometry" />
        </mxCell>
        <mxCell id="HW6ld8klnoUhau4rZCll-3" value="" style="ellipse;whiteSpace=wrap;html=1;aspect=fixed;fillColor=#000000;" vertex="1" parent="1">
          <mxGeometry x="460" y="130" width="60" height="60" as="geometry" />
        </mxCell>
        <mxCell id="HW6ld8klnoUhau4rZCll-4" value="" style="endArrow=none;html=1;rounded=0;strokeWidth=8;" edge="1" parent="1">
          <mxGeometry width="50" height="50" relative="1" as="geometry">
            <mxPoint x="410" y="159.5" as="sourcePoint" />
            <mxPoint x="470" y="159.5" as="targetPoint" />
          </mxGeometry>
        </mxCell>
        <mxCell id="HW6ld8klnoUhau4rZCll-5" value="&lt;span style=&quot;font-size: 46px;&quot;&gt;&lt;font style=&quot;font-size: 46px;&quot;&gt;120&lt;/font&gt;&lt;/span&gt;" style="text;html=1;align=center;verticalAlign=middle;resizable=0;points=[];autosize=1;strokeColor=none;fillColor=none;strokeWidth=9;fontSize=46;fontStyle=1" vertex="1" parent="1">
          <mxGeometry x="365" y="180" width="100" height="70" as="geometry" />
        </mxCell>
      </root>
    </mxGraphModel>
  </diagram>
</mxfile>
